<?xml version="1.0" standalone="no"?>
<!DOCTYPE svg PUBLIC "-//W3C//DTD SVG 20010904//EN"
 "http://www.w3.org/TR/2001/REC-SVG-20010904/DTD/svg10.dtd">
<svg version="1.0" xmlns="http://www.w3.org/2000/svg"
 width="640.000000pt" height="640.000000pt" viewBox="0 0 640.000000 640.000000"
 preserveAspectRatio="xMidYMid meet">

<g transform="translate(0.000000,640.000000) scale(0.100000,-0.100000)"
fill="#000000" stroke="none">
<path d="M2890 6394 c-365 -29 -616 -91 -995 -246 -709 -289 -1255 -767 -1590
-1391 -203 -380 -323 -879 -301 -1256 33 -565 192 -1015 510 -1445 46 -61 89
-118 97 -126 8 -9 35 -40 61 -70 131 -154 277 -290 310 -290 25 1 210 108 215
126 2 6 -77 91 -175 190 -309 310 -448 526 -608 944 -98 254 -130 459 -121
785 9 351 78 640 229 965 182 390 563 811 978 1081 305 199 751 379 1096 444
552 103 1166 54 1679 -135 325 -119 680 -322 935 -535 101 -85 300 -291 381
-395 268 -345 442 -724 504 -1095 77 -466 26 -926 -143 -1300 -152 -333 -426
-693 -692 -906 -192 -154 -630 -398 -845 -470 l-100 -34 260 -7 c298 -8 332
-3 454 63 208 112 413 272 611 476 364 373 579 730 699 1158 54 194 61 259 61
579 0 363 -17 497 -95 765 -98 336 -252 631 -484 931 -82 107 -349 375 -461
464 -332 264 -780 490 -1218 615 -314 90 -489 113 -892 116 -173 1 -335 1
-360 -1z"/>
<path d="M2960 5729 c-172 -18 -395 -67 -555 -121 -600 -202 -1033 -532 -1330
-1013 -212 -341 -296 -663 -282 -1070 7 -183 22 -291 63 -449 100 -387 363
-786 670 -1017 93 -69 133 -86 166 -68 26 14 726 441 775 473 18 11 33 24 33
28 0 4 -21 24 -47 45 -91 73 -119 98 -214 193 -179 178 -284 348 -335 545 -22
85 -27 128 -31 280 -4 157 -2 193 17 284 49 242 153 428 332 596 185 174 431
300 686 352 121 25 467 25 599 0 188 -35 362 -104 518 -205 84 -55 253 -221
317 -312 219 -310 258 -693 102 -1005 -129 -258 -389 -498 -681 -630 -81 -36
-122 -60 -130 -76 -10 -18 -13 -166 -13 -616 0 -560 1 -592 18 -586 19 8 166
85 567 298 474 252 664 377 852 559 296 286 483 639 560 1051 21 116 28 360
14 485 -58 503 -238 877 -591 1231 -394 395 -806 612 -1361 719 -203 38 -506
51 -719 29z"/>
<path d="M3070 4140 l0 -300 -375 0 -375 0 0 -140 0 -140 375 0 375 0 0 -1250
0 -1251 123 63 c83 43 126 71 134 88 10 19 13 285 13 1187 l0 1163 383 2 382
3 3 138 3 137 -386 0 c-301 0 -385 3 -386 13 0 6 -1 140 -2 297 l-2 285 -132
3 -133 3 0 -301z"/>
<path d="M2675 2114 c-107 -54 -195 -107 -535 -322 -503 -319 -702 -464 -850
-619 -178 -187 -257 -297 -354 -490 -67 -132 -92 -207 -111 -333 -15 -96 -20
-286 -9 -327 l6 -23 446 0 445 0 61 63 c34 34 86 91 116 127 113 133 266 289
384 391 22 19 54 47 70 62 51 47 109 86 268 181 l153 91 7 81 c3 45 11 254 17
465 6 211 14 457 17 547 6 134 4 162 -7 162 -8 0 -63 -26 -124 -56z"/>
<path d="M3335 873 c-11 -3 -164 -102 -340 -221 -457 -307 -772 -520 -830
-560 -27 -19 -60 -38 -72 -43 -30 -11 -29 -27 3 -39 16 -6 646 -10 1730 -10
l1704 0 0 440 0 440 -1087 -1 c-599 -1 -1097 -4 -1108 -6z"/>
</g>
</svg>
